<svg width="16" height="16" viewBox="0 0 16 16" fill="none" xmlns="http://www.w3.org/2000/svg">
<path d="M10 11H7L6 13.5H11L10 11Z" fill="#6E40B1" fill-opacity="0.5"/>
<path d="M11 13.5L10 11L10.5 10.5H12.5L11 13.5Z" fill="#6E40B1"/>
<path d="M15.5 8.5L14.5 10.5H7.5L8.5 8.5H15.5Z" fill="#6E40B1" fill-opacity="0.8"/>
<path d="M14 6.5L15.5 8.5H8.5L7.5 6.5H14Z" fill="#6E40B1" fill-opacity="0.5"/>
<path d="M6 3L5 1L1.5 8H3.5L6 3Z" fill="#6E40B1"/>
<path d="M6 3L5 1H13L14 3H6Z" fill="#6E40B1" fill-opacity="0.5"/>
<path d="M6 3L5 5H13L14 3H6Z" fill="#6E40B1" fill-opacity="0.8"/>
<path d="M3.5 8H1.5L5 15L6 13.5L3.5 8Z" fill="#6E40B1"/>
<path d="M6 13.5L5 15H12L11 13.5H6Z" fill="#6E40B1" fill-opacity="0.8"/>
<path d="M12.5 10.5L11 13.5L12 15L14.5 10.5H12.5Z" fill="#6E40B1" fill-opacity="0.8"/>
<path d="M7.5 6.5L6.5 8.5L7.5 10.5L8.5 8.5L7.5 6.5Z" fill="#6E40B1"/>
<path d="M7 5H5L3.5 8H5.5L7 5Z" fill="#6E40B1" fill-opacity="0.8"/>
<path d="M5.5 8H3.5L6 13.5L7 11L5.5 8Z" fill="#6E40B1" fill-opacity="0.5"/>
</svg>
