<svg width="70" height="70" viewBox="0 0 70 70" fill="none" xmlns="http://www.w3.org/2000/svg">
<path d="M21 35H11L23.5 62L28 50.5L21 35Z" fill="#6E40B1" fill-opacity="0.6"/>
<path d="M47.2 63L42 50.5L44.6 48H55L47.2 63Z" fill="#6E40B1"/>
<path d="M70 38L65.125 48H31L35.875 38H70Z" fill="#6E40B1" fill-opacity="0.8"/>
<path d="M62.6875 28L70 38H35.875L31 28H62.6875Z" fill="#6E40B1" fill-opacity="0.5"/>
<path d="M23.7778 11L19 1H57.2222L62 11H23.7778Z" fill="#6E40B1" fill-opacity="0.5"/>
<path d="M22.8889 11L18 21H57.1111L62 11H22.8889Z" fill="#6E40B1" fill-opacity="0.8"/>
<path d="M54.7143 48L47 62.6667L52.1429 70L65 48H54.7143Z" fill="#6E40B1" fill-opacity="0.8"/>
<path d="M31 28L26 38L31 48L36 38L31 28Z" fill="#6E40B1"/>
<path d="M29 21H18.1429L10 35H20.8571L29 21Z" fill="#6E40B1" fill-opacity="0.8"/>
<path d="M11 35H1L19 70L23.5 62L11 35Z" fill="#6E40B1"/>
<path d="M47 62H23.5L19 70H52L47 62Z" fill="#6E40B1" fill-opacity="0.8"/>
<path d="M28 50.5L23.5 62H47L42 50.5H28Z" fill="#6E40B1" fill-opacity="0.6"/>
<path d="M24 11L19 1L1 35H11L24 11Z" fill="#6E40B1"/>
</svg>
